<svg width="10" height="10" viewBox="0 0 10 10" fill="none" xmlns="http://www.w3.org/2000/svg">
<path d="M1.29884 0.825928C1.17714 0.825928 1.05733 0.874238 0.964477 0.967071C0.778768 1.15274 0.778768 1.44998 0.964477 1.63564L4.33038 5.00079L0.964477 8.36592C0.778768 8.5516 0.778768 8.84883 0.964477 9.03451C1.15019 9.22017 1.44749 9.22017 1.6332 9.03451L4.99911 5.66936L8.365 9.03451C8.55072 9.22017 8.84803 9.22017 9.03375 9.03451C9.21945 8.84883 9.21945 8.5516 9.03375 8.36592L5.66783 5.00079L9.03375 1.63564C9.21945 1.44998 9.21945 1.15274 9.03375 0.967071C8.94088 0.874238 8.82106 0.825928 8.69938 0.825928C8.57769 0.825928 8.45787 0.874238 8.365 0.967071L4.99911 4.33221L1.6332 0.967071C1.54035 0.874238 1.42054 0.825928 1.29884 0.825928Z" fill="#8059EE"/>
</svg>
