<svg width="6" height="11" viewBox="0 0 6 11" fill="none" xmlns="http://www.w3.org/2000/svg">
<path d="M6 5.5C6 5.35599 5.94478 5.22926 5.82822 5.11982L0.963189 0.65553C0.858895 0.551844 0.723926 0.5 0.564416 0.5C0.245398 0.500001 -8.54588e-07 0.724655 -8.28401e-07 1.02419C-8.15308e-07 1.17396 0.0674841 1.30069 0.165643 1.39862L4.6319 5.5L0.165644 9.60138C0.0674848 9.69931 -5.84161e-08 9.8318 -4.58265e-08 9.97581C-1.96399e-08 10.2753 0.245399 10.5 0.564417 10.5C0.723927 10.5 0.858896 10.4482 0.96319 10.3502L5.82822 5.88018C5.94478 5.7765 6 5.64401 6 5.5Z" fill="#8059EE"/>
</svg>
