<svg width="6" height="10" viewBox="0 0 6 10" fill="none" xmlns="http://www.w3.org/2000/svg">
<path d="M-8.74228e-07 5C-8.99407e-07 5.14401 0.0552138 5.27074 0.171778 5.38018L5.03681 9.84447C5.1411 9.94816 5.27607 10 5.43558 10C5.7546 10 6 9.77535 6 9.47581C6 9.32604 5.93251 9.19931 5.83435 9.10138L1.3681 5L5.83436 0.898619C5.93252 0.800692 6 0.668204 6 0.524195C6 0.224655 5.7546 1.00617e-06 5.43558 9.50387e-07C5.27607 9.22498e-07 5.1411 0.0518442 5.03681 0.14977L0.171778 4.61982C0.0552139 4.7235 -8.49048e-07 4.85599 -8.74228e-07 5Z" fill="#75657D"/>
</svg>
