<svg width="32" height="32" viewBox="0 0 32 32" fill="none" xmlns="http://www.w3.org/2000/svg">
<path fill-rule="evenodd" clip-rule="evenodd" d="M16.9163 7C16.8714 6.73476 16.8089 6.47352 16.7294 6.21796C17.6062 5.4591 18.7495 5 20 5C21.6359 5 23.0882 5.78555 24.0004 7H16.9163ZM6.75752 3.75736C5.87083 4.64405 5.29032 5.77969 5.08405 7H4C2.89543 7 2 7.89543 2 9V27C2 28.1046 2.89543 29 4 29H27C28.1046 29 29 28.1046 29 27V21.7324C29.5978 21.3866 30 20.7403 30 20V16C30 15.2597 29.5978 14.6134 29 14.2676V9C29 7.89543 28.1046 7 27 7H25.1973C24.1599 5.2066 22.2209 4 20 4C18.6191 4 17.3471 4.46652 16.3331 5.25055C16.0516 4.70443 15.6853 4.19989 15.2428 3.75736C14.1176 2.63214 12.5915 2 11.0002 2C9.40886 2 7.88274 2.63214 6.75752 3.75736ZM27 8H4C3.44772 8 3 8.44772 3 9V15.5H5.84861L8.0879 14.0072C8.031 13.8487 8 13.678 8 13.5C8 12.6716 8.67157 12 9.5 12C10.3284 12 11 12.6716 11 13.5C11 14.3284 10.3284 15 9.5 15C9.21631 15 8.95102 14.9212 8.72479 14.7844L6.15139 16.5H3V18H15.0854C15.2913 17.4174 15.8469 17 16.5 17C17.3284 17 18 17.6716 18 18.5C18 19.3284 17.3284 20 16.5 20C15.8469 20 15.2913 19.5826 15.0854 19H3V20H9.70711L11.5479 21.8408C11.8069 21.6279 12.1385 21.5 12.5 21.5C13.3284 21.5 14 22.1716 14 23C14 23.8284 13.3284 24.5 12.5 24.5C11.6716 24.5 11 23.8284 11 23C11 22.9082 11.0082 22.8184 11.024 22.7311L9.29289 21H3V27C3 27.5523 3.44772 28 4 28H27C27.5523 28 28 27.5523 28 27V22H23C21.8954 22 21 21.1046 21 20V16C21 14.8954 21.8954 14 23 14H28V9C28 8.44772 27.5523 8 27 8ZM28 15H23C22.4477 15 22 15.4477 22 16V20C22 20.5523 22.4477 21 23 21H28C28.5523 21 29 20.5523 29 20V16C29 15.4477 28.5523 15 28 15ZM23 17C23 16.4477 23.4477 16 24 16H25C25.5523 16 26 16.4477 26 17V19C26 19.5523 25.5523 20 25 20H24C23.4477 20 23 19.5523 23 19V17ZM9.5 14C9.77614 14 10 13.7761 10 13.5C10 13.2239 9.77614 13 9.5 13C9.22386 13 9 13.2239 9 13.5C9 13.7761 9.22386 14 9.5 14ZM16.5 19C16.2239 19 16 18.7761 16 18.5C16 18.2239 16.2239 18 16.5 18C16.7761 18 17 18.2239 17 18.5C17 18.7761 16.7761 19 16.5 19ZM13 23C13 23.2761 12.7761 23.5 12.5 23.5C12.2239 23.5 12 23.2761 12 23C12 22.7239 12.2239 22.5 12.5 22.5C12.7761 22.5 13 22.7239 13 23Z" fill="#8059EE"/>
</svg>
