<svg width="12" height="14" viewBox="0 0 12 14" fill="none" xmlns="http://www.w3.org/2000/svg">
<path fill-rule="evenodd" clip-rule="evenodd" d="M6.35217 1.09851C6.15767 0.904012 5.84233 0.904012 5.64783 1.09851L2.75963 3.98671C2.56513 4.18121 2.56513 4.49656 2.75963 4.69106C2.95413 4.88556 3.26947 4.88556 3.46397 4.69106L5.50195 2.65308V10.5555C5.50195 10.8305 5.72494 11.0535 6 11.0535C6.27506 11.0535 6.49805 10.8305 6.49805 10.5555V2.65308L8.53603 4.69106C8.73053 4.88556 9.04587 4.88556 9.24037 4.69106C9.43487 4.49656 9.43487 4.18121 9.24037 3.98671L6.35217 1.09851ZM0.498047 5.92236C0.222983 5.92236 0 6.14535 0 6.42041V12.5493C0 12.8244 0.222983 13.0474 0.498047 13.0474L0.499032 13.0474L11.502 13.0474C11.777 13.0474 12 12.8244 12 12.5493V6.42041C12 6.14535 11.777 5.92236 11.502 5.92236H9.45703C9.18197 5.92236 8.95898 6.14535 8.95898 6.42041C8.95898 6.69547 9.18197 6.91846 9.45703 6.91846H11.0039V12.0513L0.996094 12.0513V6.91846H2.54297C2.81803 6.91846 3.04102 6.69547 3.04102 6.42041C3.04102 6.14535 2.81803 5.92236 2.54297 5.92236H0.498047Z" fill="#8059EE"/>
</svg>
