<svg width="29" height="26" viewBox="0 0 29 26" fill="none" xmlns="http://www.w3.org/2000/svg">
<path fill-rule="evenodd" clip-rule="evenodd" d="M0.517863 8.6459C0.23198 7.57896 0.865145 6.48229 1.93208 6.19641L23.1256 0.517619C24.1925 0.231736 25.2892 0.864901 25.5751 1.93183L27.2029 8.00673C27.1359 8.00226 27.0683 8 27.0002 8H4.00023C2.49157 8 1.24301 9.11361 1.03173 10.5637L0.517863 8.6459ZM4 10H27C27.5523 10 28 10.4477 28 11V13H3V11C3 10.4477 3.44772 10 4 10ZM29 16V13V11C29 9.89543 28.1046 9 27 9H4C2.89543 9 2 9.89543 2 11V13V16V24C2 25.1046 2.89543 26 4 26H27C28.1046 26 29 25.1046 29 24V16ZM3 24V16H28V24C28 24.5523 27.5523 25 27 25H4C3.44772 25 3 24.5523 3 24ZM22 19C20.8954 19 20 19.8954 20 21C20 22.1046 20.8954 23 22 23H24C25.1046 23 26 22.1046 26 21C26 19.8954 25.1046 19 24 19H22Z" fill="#8059EE"/>
</svg>
