<svg width="345" height="242" viewBox="0 0 345 242" fill="none" xmlns="http://www.w3.org/2000/svg">
<rect x="1" y="1" width="343" height="240" rx="10" fill="white"/>
<rect x="1" y="1" width="343" height="240" rx="10" stroke="#75657D" stroke-opacity="0.2" stroke-width="0.5"/>
<g clip-path="url(#clip0_10786_3487)">
<path d="M284.5 9H60.5V233H284.5V9Z" fill="white"/>
<path d="M145.257 33.2163H139.203V39.2704H145.257V33.2163Z" fill="#060606"/>
<path d="M151.311 33.2163H145.257V39.2704H151.311V33.2163Z" fill="#060606"/>
<path d="M157.365 33.2163H151.311V39.2704H157.365V33.2163Z" fill="#060606"/>
<path d="M181.581 33.2163H175.527V39.2704H181.581V33.2163Z" fill="#060606"/>
<path d="M187.635 33.2163H181.581V39.2704H187.635V33.2163Z" fill="#060606"/>
<path d="M211.851 33.2163H205.797V39.2704H211.851V33.2163Z" fill="#060606"/>
<path d="M151.311 39.2703H145.257V45.3243H151.311V39.2703Z" fill="#060606"/>
<path d="M157.365 39.2703H151.311V45.3243H157.365V39.2703Z" fill="#060606"/>
<path d="M193.689 39.2703H187.635V45.3243H193.689V39.2703Z" fill="#060606"/>
<path d="M139.203 45.3242H133.149V51.3783H139.203V45.3242Z" fill="#060606"/>
<path d="M145.257 45.3242H139.203V51.3783H145.257V45.3242Z" fill="#060606"/>
<path d="M175.527 45.3242H169.473V51.3783H175.527V45.3242Z" fill="#060606"/>
<path d="M187.635 45.3242H181.581V51.3783H187.635V45.3242Z" fill="#060606"/>
<path d="M199.743 45.3242H193.689V51.3783H199.743V45.3242Z" fill="#060606"/>
<path d="M205.797 45.3242H199.743V51.3783H205.797V45.3242Z" fill="#060606"/>
<path d="M211.851 45.3242H205.797V51.3783H211.851V45.3242Z" fill="#060606"/>
<path d="M139.203 51.3784H133.149V57.4325H139.203V51.3784Z" fill="#060606"/>
<path d="M151.311 51.3784H145.257V57.4325H151.311V51.3784Z" fill="#060606"/>
<path d="M157.365 51.3784H151.311V57.4325H157.365V51.3784Z" fill="#060606"/>
<path d="M187.635 51.3784H181.581V57.4325H187.635V51.3784Z" fill="#060606"/>
<path d="M193.689 51.3784H187.635V57.4325H193.689V51.3784Z" fill="#060606"/>
<path d="M199.743 51.3784H193.689V57.4325H199.743V51.3784Z" fill="#060606"/>
<path d="M211.851 51.3784H205.797V57.4325H211.851V51.3784Z" fill="#060606"/>
<path d="M139.203 57.4324H133.149V63.4864H139.203V57.4324Z" fill="#060606"/>
<path d="M151.311 57.4324H145.257V63.4864H151.311V57.4324Z" fill="#060606"/>
<path d="M163.419 57.4324H157.365V63.4864H163.419V57.4324Z" fill="#060606"/>
<path d="M169.473 57.4324H163.419V63.4864H169.473V57.4324Z" fill="#060606"/>
<path d="M175.527 57.4324H169.473V63.4864H175.527V57.4324Z" fill="#060606"/>
<path d="M181.581 57.4324H175.527V63.4864H181.581V57.4324Z" fill="#060606"/>
<path d="M199.743 57.4324H193.689V63.4864H199.743V57.4324Z" fill="#060606"/>
<path d="M211.851 57.4324H205.797V63.4864H211.851V57.4324Z" fill="#060606"/>
<path d="M139.203 63.4866H133.149V69.5406H139.203V63.4866Z" fill="#060606"/>
<path d="M145.257 63.4866H139.203V69.5406H145.257V63.4866Z" fill="#060606"/>
<path d="M151.311 63.4866H145.257V69.5406H151.311V63.4866Z" fill="#060606"/>
<path d="M163.419 63.4866H157.365V69.5406H163.419V63.4866Z" fill="#060606"/>
<path d="M169.473 63.4866H163.419V69.5406H169.473V63.4866Z" fill="#060606"/>
<path d="M175.527 63.4866H169.473V69.5406H175.527V63.4866Z" fill="#060606"/>
<path d="M181.581 63.4866H175.527V69.5406H181.581V63.4866Z" fill="#060606"/>
<path d="M187.635 63.4866H181.581V69.5406H187.635V63.4866Z" fill="#060606"/>
<path d="M193.689 63.4866H187.635V69.5406H193.689V63.4866Z" fill="#060606"/>
<path d="M205.797 63.4866H199.743V69.5406H205.797V63.4866Z" fill="#060606"/>
<path d="M139.203 69.5405H133.149V75.5946H139.203V69.5405Z" fill="#060606"/>
<path d="M151.311 69.5405H145.257V75.5946H151.311V69.5405Z" fill="#060606"/>
<path d="M163.419 69.5405H157.365V75.5946H163.419V69.5405Z" fill="#060606"/>
<path d="M175.527 69.5405H169.473V75.5946H175.527V69.5405Z" fill="#060606"/>
<path d="M187.635 69.5405H181.581V75.5946H187.635V69.5405Z" fill="#060606"/>
<path d="M199.743 69.5405H193.689V75.5946H199.743V69.5405Z" fill="#060606"/>
<path d="M211.851 69.5405H205.797V75.5946H211.851V69.5405Z" fill="#060606"/>
<path d="M139.203 75.5945H133.149V81.6485H139.203V75.5945Z" fill="#060606"/>
<path d="M151.311 75.5945H145.257V81.6485H151.311V75.5945Z" fill="#060606"/>
<path d="M163.419 75.5945H157.365V81.6485H163.419V75.5945Z" fill="#060606"/>
<path d="M169.473 75.5945H163.419V81.6485H169.473V75.5945Z" fill="#060606"/>
<path d="M181.581 75.5945H175.527V81.6485H181.581V75.5945Z" fill="#060606"/>
<path d="M205.797 75.5945H199.743V81.6485H205.797V75.5945Z" fill="#060606"/>
<path d="M211.851 75.5945H205.797V81.6485H211.851V75.5945Z" fill="#060606"/>
<path d="M90.7704 81.6487H84.7163V87.7027H90.7704V81.6487Z" fill="#060606"/>
<path d="M102.878 81.6487H96.8242V87.7027H102.878V81.6487Z" fill="#060606"/>
<path d="M108.932 81.6487H102.878V87.7027H108.932V81.6487Z" fill="#060606"/>
<path d="M114.986 81.6487H108.932V87.7027H114.986V81.6487Z" fill="#060606"/>
<path d="M121.041 81.6487H114.987V87.7027H121.041V81.6487Z" fill="#060606"/>
<path d="M127.095 81.6487H121.041V87.7027H127.095V81.6487Z" fill="#060606"/>
<path d="M175.527 81.6487H169.473V87.7027H175.527V81.6487Z" fill="#060606"/>
<path d="M181.581 81.6487H175.527V87.7027H181.581V81.6487Z" fill="#060606"/>
<path d="M211.851 81.6487H205.797V87.7027H211.851V81.6487Z" fill="#060606"/>
<path d="M223.959 81.6487H217.905V87.7027H223.959V81.6487Z" fill="#060606"/>
<path d="M230.014 81.6487H223.959V87.7027H230.014V81.6487Z" fill="#060606"/>
<path d="M236.067 81.6487H230.013V87.7027H236.067V81.6487Z" fill="#060606"/>
<path d="M242.122 81.6487H236.068V87.7027H242.122V81.6487Z" fill="#060606"/>
<path d="M248.176 81.6487H242.122V87.7027H248.176V81.6487Z" fill="#060606"/>
<path d="M90.7704 87.7026H84.7163V93.7567H90.7704V87.7026Z" fill="#060606"/>
<path d="M108.932 87.7026H102.878V93.7567H108.932V87.7026Z" fill="#060606"/>
<path d="M114.986 87.7026H108.932V93.7567H114.986V87.7026Z" fill="#060606"/>
<path d="M133.149 87.7026H127.094V93.7567H133.149V87.7026Z" fill="#060606"/>
<path d="M139.203 87.7026H133.149V93.7567H139.203V87.7026Z" fill="#060606"/>
<path d="M145.257 87.7026H139.203V93.7567H145.257V87.7026Z" fill="#060606"/>
<path d="M157.365 87.7026H151.311V93.7567H157.365V87.7026Z" fill="#060606"/>
<path d="M163.419 87.7026H157.365V93.7567H163.419V87.7026Z" fill="#060606"/>
<path d="M181.581 87.7026H175.527V93.7567H181.581V87.7026Z" fill="#060606"/>
<path d="M187.635 87.7026H181.581V93.7567H187.635V87.7026Z" fill="#060606"/>
<path d="M223.959 87.7026H217.905V93.7567H223.959V87.7026Z" fill="#060606"/>
<path d="M230.014 87.7026H223.959V93.7567H230.014V87.7026Z" fill="#060606"/>
<path d="M236.067 87.7026H230.013V93.7567H236.067V87.7026Z" fill="#060606"/>
<path d="M242.122 87.7026H236.068V93.7567H242.122V87.7026Z" fill="#060606"/>
<path d="M254.23 87.7026H248.176V93.7567H254.23V87.7026Z" fill="#060606"/>
<path d="M96.8243 93.7568H90.7703V99.8109H96.8243V93.7568Z" fill="#060606"/>
<path d="M102.878 93.7568H96.8242V99.8109H102.878V93.7568Z" fill="#060606"/>
<path d="M121.041 93.7568H114.987V99.8109H121.041V93.7568Z" fill="#060606"/>
<path d="M127.095 93.7568H121.041V99.8109H127.095V93.7568Z" fill="#060606"/>
<path d="M151.311 93.7568H145.257V99.8109H151.311V93.7568Z" fill="#060606"/>
<path d="M157.365 93.7568H151.311V99.8109H157.365V93.7568Z" fill="#060606"/>
<path d="M163.419 93.7568H157.365V99.8109H163.419V93.7568Z" fill="#060606"/>
<path d="M193.689 93.7568H187.635V99.8109H193.689V93.7568Z" fill="#060606"/>
<path d="M205.797 93.7568H199.743V99.8109H205.797V93.7568Z" fill="#060606"/>
<path d="M217.905 93.7568H211.851V99.8109H217.905V93.7568Z" fill="#060606"/>
<path d="M230.014 93.7568H223.959V99.8109H230.014V93.7568Z" fill="#060606"/>
<path d="M242.122 93.7568H236.068V99.8109H242.122V93.7568Z" fill="#060606"/>
<path d="M248.176 93.7568H242.122V99.8109H248.176V93.7568Z" fill="#060606"/>
<path d="M90.7704 99.8108H84.7163V105.865H90.7704V99.8108Z" fill="#060606"/>
<path d="M108.932 99.8108H102.878V105.865H108.932V99.8108Z" fill="#060606"/>
<path d="M114.986 99.8108H108.932V105.865H114.986V99.8108Z" fill="#060606"/>
<path d="M133.149 99.8108H127.094V105.865H133.149V99.8108Z" fill="#060606"/>
<path d="M139.203 99.8108H133.149V105.865H139.203V99.8108Z" fill="#060606"/>
<path d="M145.257 99.8108H139.203V105.865H145.257V99.8108Z" fill="#060606"/>
<path d="M157.365 99.8108H151.311V105.865H157.365V99.8108Z" fill="#060606"/>
<path d="M175.527 99.8108H169.473V105.865H175.527V99.8108Z" fill="#060606"/>
<path d="M187.635 99.8108H181.581V105.865H187.635V99.8108Z" fill="#060606"/>
<path d="M199.743 99.8108H193.689V105.865H199.743V99.8108Z" fill="#060606"/>
<path d="M205.797 99.8108H199.743V105.865H205.797V99.8108Z" fill="#060606"/>
<path d="M211.851 99.8108H205.797V105.865H211.851V99.8108Z" fill="#060606"/>
<path d="M217.905 99.8108H211.851V105.865H217.905V99.8108Z" fill="#060606"/>
<path d="M223.959 99.8108H217.905V105.865H223.959V99.8108Z" fill="#060606"/>
<path d="M230.014 99.8108H223.959V105.865H230.014V99.8108Z" fill="#060606"/>
<path d="M236.067 99.8108H230.013V105.865H236.067V99.8108Z" fill="#060606"/>
<path d="M242.122 99.8108H236.068V105.865H242.122V99.8108Z" fill="#060606"/>
<path d="M260.284 99.8108H254.23V105.865H260.284V99.8108Z" fill="#060606"/>
<path d="M102.878 105.865H96.8242V111.919H102.878V105.865Z" fill="#060606"/>
<path d="M108.932 105.865H102.878V111.919H108.932V105.865Z" fill="#060606"/>
<path d="M114.986 105.865H108.932V111.919H114.986V105.865Z" fill="#060606"/>
<path d="M121.041 105.865H114.987V111.919H121.041V105.865Z" fill="#060606"/>
<path d="M127.095 105.865H121.041V111.919H127.095V105.865Z" fill="#060606"/>
<path d="M139.203 105.865H133.149V111.919H139.203V105.865Z" fill="#060606"/>
<path d="M151.311 105.865H145.257V111.919H151.311V105.865Z" fill="#060606"/>
<path d="M223.959 105.865H217.905V111.919H223.959V105.865Z" fill="#060606"/>
<path d="M230.014 105.865H223.959V111.919H230.014V105.865Z" fill="#060606"/>
<path d="M90.7704 111.919H84.7163V117.973H90.7704V111.919Z" fill="#060606"/>
<path d="M102.878 111.919H96.8242V117.973H102.878V111.919Z" fill="#060606"/>
<path d="M133.149 111.919H127.094V117.973H133.149V111.919Z" fill="#060606"/>
<path d="M139.203 111.919H133.149V117.973H139.203V111.919Z" fill="#060606"/>
<path d="M145.257 111.919H139.203V117.973H145.257V111.919Z" fill="#060606"/>
<path d="M151.311 111.919H145.257V117.973H151.311V111.919Z" fill="#060606"/>
<path d="M157.365 111.919H151.311V117.973H157.365V111.919Z" fill="#060606"/>
<path d="M169.473 111.919H163.419V117.973H169.473V111.919Z" fill="#060606"/>
<path d="M175.527 111.919H169.473V117.973H175.527V111.919Z" fill="#060606"/>
<path d="M181.581 111.919H175.527V117.973H181.581V111.919Z" fill="#060606"/>
<path d="M199.743 111.919H193.689V117.973H199.743V111.919Z" fill="#060606"/>
<path d="M211.851 111.919H205.797V117.973H211.851V111.919Z" fill="#060606"/>
<path d="M217.905 111.919H211.851V117.973H217.905V111.919Z" fill="#060606"/>
<path d="M223.959 111.919H217.905V117.973H223.959V111.919Z" fill="#060606"/>
<path d="M230.014 111.919H223.959V117.973H230.014V111.919Z" fill="#060606"/>
<path d="M236.067 111.919H230.013V117.973H236.067V111.919Z" fill="#060606"/>
<path d="M242.122 111.919H236.068V117.973H242.122V111.919Z" fill="#060606"/>
<path d="M254.23 111.919H248.176V117.973H254.23V111.919Z" fill="#060606"/>
<path d="M102.878 117.973H96.8242V124.027H102.878V117.973Z" fill="#060606"/>
<path d="M108.932 117.973H102.878V124.027H108.932V117.973Z" fill="#060606"/>
<path d="M114.986 117.973H108.932V124.027H114.986V117.973Z" fill="#060606"/>
<path d="M127.095 117.973H121.041V124.027H127.095V117.973Z" fill="#060606"/>
<path d="M139.203 117.973H133.149V124.027H139.203V117.973Z" fill="#060606"/>
<path d="M145.257 117.973H139.203V124.027H145.257V117.973Z" fill="#060606"/>
<path d="M157.365 117.973H151.311V124.027H157.365V117.973Z" fill="#060606"/>
<path d="M169.473 117.973H163.419V124.027H169.473V117.973Z" fill="#060606"/>
<path d="M175.527 117.973H169.473V124.027H175.527V117.973Z" fill="#060606"/>
<path d="M181.581 117.973H175.527V124.027H181.581V117.973Z" fill="#060606"/>
<path d="M193.689 117.973H187.635V124.027H193.689V117.973Z" fill="#060606"/>
<path d="M211.851 117.973H205.797V124.027H211.851V117.973Z" fill="#060606"/>
<path d="M230.014 117.973H223.959V124.027H230.014V117.973Z" fill="#060606"/>
<path d="M242.122 117.973H236.068V124.027H242.122V117.973Z" fill="#060606"/>
<path d="M248.176 117.973H242.122V124.027H248.176V117.973Z" fill="#060606"/>
<path d="M254.23 117.973H248.176V124.027H254.23V117.973Z" fill="#060606"/>
<path d="M260.284 117.973H254.23V124.027H260.284V117.973Z" fill="#060606"/>
<path d="M90.7704 124.027H84.7163V130.081H90.7704V124.027Z" fill="#060606"/>
<path d="M114.986 124.027H108.932V130.081H114.986V124.027Z" fill="#060606"/>
<path d="M121.041 124.027H114.987V130.081H121.041V124.027Z" fill="#060606"/>
<path d="M133.149 124.027H127.094V130.081H133.149V124.027Z" fill="#060606"/>
<path d="M145.257 124.027H139.203V130.081H145.257V124.027Z" fill="#060606"/>
<path d="M157.365 124.027H151.311V130.081H157.365V124.027Z" fill="#060606"/>
<path d="M169.473 124.027H163.419V130.081H169.473V124.027Z" fill="#060606"/>
<path d="M181.581 124.027H175.527V130.081H181.581V124.027Z" fill="#060606"/>
<path d="M199.743 124.027H193.689V130.081H199.743V124.027Z" fill="#060606"/>
<path d="M205.797 124.027H199.743V130.081H205.797V124.027Z" fill="#060606"/>
<path d="M211.851 124.027H205.797V130.081H211.851V124.027Z" fill="#060606"/>
<path d="M223.959 124.027H217.905V130.081H223.959V124.027Z" fill="#060606"/>
<path d="M230.014 124.027H223.959V130.081H230.014V124.027Z" fill="#060606"/>
<path d="M236.067 124.027H230.013V130.081H236.067V124.027Z" fill="#060606"/>
<path d="M254.23 124.027H248.176V130.081H254.23V124.027Z" fill="#060606"/>
<path d="M260.284 124.027H254.23V130.081H260.284V124.027Z" fill="#060606"/>
<path d="M96.8243 130.081H90.7703V136.135H96.8243V130.081Z" fill="#060606"/>
<path d="M108.932 130.081H102.878V136.135H108.932V130.081Z" fill="#060606"/>
<path d="M114.986 130.081H108.932V136.135H114.986V130.081Z" fill="#060606"/>
<path d="M121.041 130.081H114.987V136.135H121.041V130.081Z" fill="#060606"/>
<path d="M127.095 130.081H121.041V136.135H127.095V130.081Z" fill="#060606"/>
<path d="M133.149 130.081H127.094V136.135H133.149V130.081Z" fill="#060606"/>
<path d="M139.203 130.081H133.149V136.135H139.203V130.081Z" fill="#060606"/>
<path d="M163.419 130.081H157.365V136.135H163.419V130.081Z" fill="#060606"/>
<path d="M175.527 130.081H169.473V136.135H175.527V130.081Z" fill="#060606"/>
<path d="M181.581 130.081H175.527V136.135H181.581V130.081Z" fill="#060606"/>
<path d="M187.635 130.081H181.581V136.135H187.635V130.081Z" fill="#060606"/>
<path d="M230.014 130.081H223.959V136.135H230.014V130.081Z" fill="#060606"/>
<path d="M90.7704 136.135H84.7163V142.189H90.7704V136.135Z" fill="#060606"/>
<path d="M114.986 136.135H108.932V142.189H114.986V136.135Z" fill="#060606"/>
<path d="M133.149 136.135H127.094V142.189H133.149V136.135Z" fill="#060606"/>
<path d="M139.203 136.135H133.149V142.189H139.203V136.135Z" fill="#060606"/>
<path d="M145.257 136.135H139.203V142.189H145.257V136.135Z" fill="#060606"/>
<path d="M187.635 136.135H181.581V142.189H187.635V136.135Z" fill="#060606"/>
<path d="M199.743 136.135H193.689V142.189H199.743V136.135Z" fill="#060606"/>
<path d="M211.851 136.135H205.797V142.189H211.851V136.135Z" fill="#060606"/>
<path d="M223.959 136.135H217.905V142.189H223.959V136.135Z" fill="#060606"/>
<path d="M230.014 136.135H223.959V142.189H230.014V136.135Z" fill="#060606"/>
<path d="M236.067 136.135H230.013V142.189H236.067V136.135Z" fill="#060606"/>
<path d="M242.122 136.135H236.068V142.189H242.122V136.135Z" fill="#060606"/>
<path d="M260.284 136.135H254.23V142.189H260.284V136.135Z" fill="#060606"/>
<path d="M90.7704 142.189H84.7163V148.243H90.7704V142.189Z" fill="#060606"/>
<path d="M114.986 142.189H108.932V148.243H114.986V142.189Z" fill="#060606"/>
<path d="M127.095 142.189H121.041V148.243H127.095V142.189Z" fill="#060606"/>
<path d="M133.149 142.189H127.094V148.243H133.149V142.189Z" fill="#060606"/>
<path d="M139.203 142.189H133.149V148.243H139.203V142.189Z" fill="#060606"/>
<path d="M145.257 142.189H139.203V148.243H145.257V142.189Z" fill="#060606"/>
<path d="M151.311 142.189H145.257V148.243H151.311V142.189Z" fill="#060606"/>
<path d="M163.419 142.189H157.365V148.243H163.419V142.189Z" fill="#060606"/>
<path d="M193.689 142.189H187.635V148.243H193.689V142.189Z" fill="#060606"/>
<path d="M230.014 142.189H223.959V148.243H230.014V142.189Z" fill="#060606"/>
<path d="M242.122 142.189H236.068V148.243H242.122V142.189Z" fill="#060606"/>
<path d="M248.176 142.189H242.122V148.243H248.176V142.189Z" fill="#060606"/>
<path d="M260.284 142.189H254.23V148.243H260.284V142.189Z" fill="#060606"/>
<path d="M90.7704 148.243H84.7163V154.297H90.7704V148.243Z" fill="#060606"/>
<path d="M102.878 148.243H96.8242V154.297H102.878V148.243Z" fill="#060606"/>
<path d="M145.257 148.243H139.203V154.297H145.257V148.243Z" fill="#060606"/>
<path d="M157.365 148.243H151.311V154.297H157.365V148.243Z" fill="#060606"/>
<path d="M175.527 148.243H169.473V154.297H175.527V148.243Z" fill="#060606"/>
<path d="M193.689 148.243H187.635V154.297H193.689V148.243Z" fill="#060606"/>
<path d="M205.797 148.243H199.743V154.297H205.797V148.243Z" fill="#060606"/>
<path d="M211.851 148.243H205.797V154.297H211.851V148.243Z" fill="#060606"/>
<path d="M217.905 148.243H211.851V154.297H217.905V148.243Z" fill="#060606"/>
<path d="M223.959 148.243H217.905V154.297H223.959V148.243Z" fill="#060606"/>
<path d="M230.014 148.243H223.959V154.297H230.014V148.243Z" fill="#060606"/>
<path d="M236.067 148.243H230.013V154.297H236.067V148.243Z" fill="#060606"/>
<path d="M90.7704 154.297H84.7163V160.351H90.7704V154.297Z" fill="#060606"/>
<path d="M102.878 154.297H96.8242V160.351H102.878V154.297Z" fill="#060606"/>
<path d="M108.932 154.297H102.878V160.351H108.932V154.297Z" fill="#060606"/>
<path d="M127.095 154.297H121.041V160.351H127.095V154.297Z" fill="#060606"/>
<path d="M133.149 154.297H127.094V160.351H133.149V154.297Z" fill="#060606"/>
<path d="M157.365 154.297H151.311V160.351H157.365V154.297Z" fill="#060606"/>
<path d="M163.419 154.297H157.365V160.351H163.419V154.297Z" fill="#060606"/>
<path d="M181.581 154.297H175.527V160.351H181.581V154.297Z" fill="#060606"/>
<path d="M187.635 154.297H181.581V160.351H187.635V154.297Z" fill="#060606"/>
<path d="M199.743 154.297H193.689V160.351H199.743V154.297Z" fill="#060606"/>
<path d="M211.851 154.297H205.797V160.351H211.851V154.297Z" fill="#060606"/>
<path d="M217.905 154.297H211.851V160.351H217.905V154.297Z" fill="#060606"/>
<path d="M223.959 154.297H217.905V160.351H223.959V154.297Z" fill="#060606"/>
<path d="M230.014 154.297H223.959V160.351H230.014V154.297Z" fill="#060606"/>
<path d="M236.067 154.297H230.013V160.351H236.067V154.297Z" fill="#060606"/>
<path d="M242.122 154.297H236.068V160.351H242.122V154.297Z" fill="#060606"/>
<path d="M248.176 154.297H242.122V160.351H248.176V154.297Z" fill="#060606"/>
<path d="M254.23 154.297H248.176V160.351H254.23V154.297Z" fill="#060606"/>
<path d="M139.203 160.351H133.149V166.405H139.203V160.351Z" fill="#060606"/>
<path d="M145.257 160.351H139.203V166.405H145.257V160.351Z" fill="#060606"/>
<path d="M151.311 160.351H145.257V166.405H151.311V160.351Z" fill="#060606"/>
<path d="M163.419 160.351H157.365V166.405H163.419V160.351Z" fill="#060606"/>
<path d="M169.473 160.351H163.419V166.405H169.473V160.351Z" fill="#060606"/>
<path d="M175.527 160.351H169.473V166.405H175.527V160.351Z" fill="#060606"/>
<path d="M181.581 160.351H175.527V166.405H181.581V160.351Z" fill="#060606"/>
<path d="M187.635 160.351H181.581V166.405H187.635V160.351Z" fill="#060606"/>
<path d="M211.851 160.351H205.797V166.405H211.851V160.351Z" fill="#060606"/>
<path d="M236.067 160.351H230.013V166.405H236.067V160.351Z" fill="#060606"/>
<path d="M254.23 160.351H248.176V166.405H254.23V160.351Z" fill="#060606"/>
<path d="M145.257 166.405H139.203V172.459H145.257V166.405Z" fill="#060606"/>
<path d="M151.311 166.405H145.257V172.459H151.311V166.405Z" fill="#060606"/>
<path d="M157.365 166.405H151.311V172.459H157.365V166.405Z" fill="#060606"/>
<path d="M169.473 166.405H163.419V172.459H169.473V166.405Z" fill="#060606"/>
<path d="M175.527 166.405H169.473V172.459H175.527V166.405Z" fill="#060606"/>
<path d="M193.689 166.405H187.635V172.459H193.689V166.405Z" fill="#060606"/>
<path d="M199.743 166.405H193.689V172.459H199.743V166.405Z" fill="#060606"/>
<path d="M211.851 166.405H205.797V172.459H211.851V166.405Z" fill="#060606"/>
<path d="M223.959 166.405H217.905V172.459H223.959V166.405Z" fill="#060606"/>
<path d="M236.067 166.405H230.013V172.459H236.067V166.405Z" fill="#060606"/>
<path d="M242.122 166.405H236.068V172.459H242.122V166.405Z" fill="#060606"/>
<path d="M248.176 166.405H242.122V172.459H248.176V166.405Z" fill="#060606"/>
<path d="M139.203 172.459H133.149V178.514H139.203V172.459Z" fill="#060606"/>
<path d="M145.257 172.459H139.203V178.514H145.257V172.459Z" fill="#060606"/>
<path d="M157.365 172.459H151.311V178.514H157.365V172.459Z" fill="#060606"/>
<path d="M163.419 172.459H157.365V178.514H163.419V172.459Z" fill="#060606"/>
<path d="M169.473 172.459H163.419V178.514H169.473V172.459Z" fill="#060606"/>
<path d="M187.635 172.459H181.581V178.514H187.635V172.459Z" fill="#060606"/>
<path d="M193.689 172.459H187.635V178.514H193.689V172.459Z" fill="#060606"/>
<path d="M199.743 172.459H193.689V178.514H199.743V172.459Z" fill="#060606"/>
<path d="M205.797 172.459H199.743V178.514H205.797V172.459Z" fill="#060606"/>
<path d="M211.851 172.459H205.797V178.514H211.851V172.459Z" fill="#060606"/>
<path d="M236.067 172.459H230.013V178.514H236.067V172.459Z" fill="#060606"/>
<path d="M248.176 172.459H242.122V178.514H248.176V172.459Z" fill="#060606"/>
<path d="M254.23 172.459H248.176V178.514H254.23V172.459Z" fill="#060606"/>
<path d="M260.284 172.459H254.23V178.514H260.284V172.459Z" fill="#060606"/>
<path d="M139.203 178.513H133.149V184.567H139.203V178.513Z" fill="#060606"/>
<path d="M145.257 178.513H139.203V184.567H145.257V178.513Z" fill="#060606"/>
<path d="M157.365 178.513H151.311V184.567H157.365V178.513Z" fill="#060606"/>
<path d="M163.419 178.513H157.365V184.567H163.419V178.513Z" fill="#060606"/>
<path d="M175.527 178.513H169.473V184.567H175.527V178.513Z" fill="#060606"/>
<path d="M181.581 178.513H175.527V184.567H181.581V178.513Z" fill="#060606"/>
<path d="M187.635 178.513H181.581V184.567H187.635V178.513Z" fill="#060606"/>
<path d="M193.689 178.513H187.635V184.567H193.689V178.513Z" fill="#060606"/>
<path d="M205.797 178.513H199.743V184.567H205.797V178.513Z" fill="#060606"/>
<path d="M211.851 178.513H205.797V184.567H211.851V178.513Z" fill="#060606"/>
<path d="M217.905 178.513H211.851V184.567H217.905V178.513Z" fill="#060606"/>
<path d="M223.959 178.513H217.905V184.567H223.959V178.513Z" fill="#060606"/>
<path d="M230.014 178.513H223.959V184.567H230.014V178.513Z" fill="#060606"/>
<path d="M236.067 178.513H230.013V184.567H236.067V178.513Z" fill="#060606"/>
<path d="M248.176 178.513H242.122V184.567H248.176V178.513Z" fill="#060606"/>
<path d="M254.23 178.513H248.176V184.567H254.23V178.513Z" fill="#060606"/>
<path d="M260.284 178.513H254.23V184.567H260.284V178.513Z" fill="#060606"/>
<path d="M139.203 184.568H133.149V190.622H139.203V184.568Z" fill="#060606"/>
<path d="M151.311 184.568H145.257V190.622H151.311V184.568Z" fill="#060606"/>
<path d="M157.365 184.568H151.311V190.622H157.365V184.568Z" fill="#060606"/>
<path d="M169.473 184.568H163.419V190.622H169.473V184.568Z" fill="#060606"/>
<path d="M187.635 184.568H181.581V190.622H187.635V184.568Z" fill="#060606"/>
<path d="M199.743 184.568H193.689V190.622H199.743V184.568Z" fill="#060606"/>
<path d="M211.851 184.568H205.797V190.622H211.851V184.568Z" fill="#060606"/>
<path d="M223.959 184.568H217.905V190.622H223.959V184.568Z" fill="#060606"/>
<path d="M230.014 184.568H223.959V190.622H230.014V184.568Z" fill="#060606"/>
<path d="M139.203 190.622H133.149V196.676H139.203V190.622Z" fill="#060606"/>
<path d="M151.311 190.622H145.257V196.676H151.311V190.622Z" fill="#060606"/>
<path d="M157.365 190.622H151.311V196.676H157.365V190.622Z" fill="#060606"/>
<path d="M175.527 190.622H169.473V196.676H175.527V190.622Z" fill="#060606"/>
<path d="M193.689 190.622H187.635V196.676H193.689V190.622Z" fill="#060606"/>
<path d="M205.797 190.622H199.743V196.676H205.797V190.622Z" fill="#060606"/>
<path d="M223.959 190.622H217.905V196.676H223.959V190.622Z" fill="#060606"/>
<path d="M230.014 190.622H223.959V196.676H230.014V190.622Z" fill="#060606"/>
<path d="M248.176 190.622H242.122V196.676H248.176V190.622Z" fill="#060606"/>
<path d="M254.23 190.622H248.176V196.676H254.23V190.622Z" fill="#060606"/>
<path d="M175.527 196.676H169.473V202.73H175.527V196.676Z" fill="#060606"/>
<path d="M187.635 196.676H181.581V202.73H187.635V196.676Z" fill="#060606"/>
<path d="M199.743 196.676H193.689V202.73H199.743V196.676Z" fill="#060606"/>
<path d="M211.851 196.676H205.797V202.73H211.851V196.676Z" fill="#060606"/>
<path d="M242.122 196.676H236.068V202.73H242.122V196.676Z" fill="#060606"/>
<path d="M248.176 196.676H242.122V202.73H248.176V196.676Z" fill="#060606"/>
<path d="M260.284 196.676H254.23V202.73H260.284V196.676Z" fill="#060606"/>
<path d="M139.203 202.73H133.149V208.784H139.203V202.73Z" fill="#060606"/>
<path d="M145.257 202.73H139.203V208.784H145.257V202.73Z" fill="#060606"/>
<path d="M151.311 202.73H145.257V208.784H151.311V202.73Z" fill="#060606"/>
<path d="M181.581 202.73H175.527V208.784H181.581V202.73Z" fill="#060606"/>
<path d="M187.635 202.73H181.581V208.784H187.635V202.73Z" fill="#060606"/>
<path d="M193.689 202.73H187.635V208.784H193.689V202.73Z" fill="#060606"/>
<path d="M199.743 202.73H193.689V208.784H199.743V202.73Z" fill="#060606"/>
<path d="M223.959 202.73H217.905V208.784H223.959V202.73Z" fill="#060606"/>
<path d="M236.067 202.73H230.013V208.784H236.067V202.73Z" fill="#060606"/>
<path d="M242.122 202.73H236.068V208.784H242.122V202.73Z" fill="#060606"/>
<path d="M248.176 202.73H242.122V208.784H248.176V202.73Z" fill="#060606"/>
<path d="M127.095 33.2163H84.7163V75.5947H127.095V33.2163Z" fill="#060606"/>
<path d="M121.041 39.2703H90.7703V69.5405H121.041V39.2703Z" fill="white"/>
<path d="M260.284 33.2163H217.905V75.5947H260.284V33.2163Z" fill="#060606"/>
<path d="M254.23 39.2703H223.959V69.5405H254.23V39.2703Z" fill="white"/>
<path d="M114.986 45.3242H96.8242V63.4864H114.986V45.3242Z" fill="#060606"/>
<path d="M248.176 45.3242H230.013V63.4864H248.176V45.3242Z" fill="#060606"/>
<path d="M127.095 166.405H84.7163V208.784H127.095V166.405Z" fill="#060606"/>
<path d="M121.041 172.459H90.7703V202.73H121.041V172.459Z" fill="white"/>
<path d="M114.986 178.513H96.8242V196.676H114.986V178.513Z" fill="#060606"/>
<g style="mix-blend-mode:lighten">
<rect x="61" y="9" width="224" height="224" fill="url(#paint0_linear_10786_3487)"/>
</g>
</g>
<defs>
<linearGradient id="paint0_linear_10786_3487" x1="173" y1="9" x2="173" y2="233" gradientUnits="userSpaceOnUse">
<stop stop-color="#8059EE"/>
<stop offset="1" stop-color="#493388"/>
</linearGradient>
<clipPath id="clip0_10786_3487">
<rect width="224" height="224" fill="white" transform="translate(60.5 9)"/>
</clipPath>
</defs>
</svg>
