<svg width="225" height="224" viewBox="0 0 225 224" fill="none" xmlns="http://www.w3.org/2000/svg">
<g clip-path="url(#clip0_10786_3488)">
<path d="M224.5 0H0.5V224H224.5V0Z" fill="white"/>
<path d="M85.2567 24.2163H79.2026V30.2704H85.2567V24.2163Z" fill="#060606"/>
<path d="M91.3109 24.2163H85.2568V30.2704H91.3109V24.2163Z" fill="#060606"/>
<path d="M97.3648 24.2163H91.3108V30.2704H97.3648V24.2163Z" fill="#060606"/>
<path d="M121.581 24.2163H115.527V30.2704H121.581V24.2163Z" fill="#060606"/>
<path d="M127.635 24.2163H121.581V30.2704H127.635V24.2163Z" fill="#060606"/>
<path d="M151.851 24.2163H145.797V30.2704H151.851V24.2163Z" fill="#060606"/>
<path d="M91.3109 30.2703H85.2568V36.3243H91.3109V30.2703Z" fill="#060606"/>
<path d="M97.3648 30.2703H91.3108V36.3243H97.3648V30.2703Z" fill="#060606"/>
<path d="M133.689 30.2703H127.635V36.3243H133.689V30.2703Z" fill="#060606"/>
<path d="M79.2027 36.3242H73.1487V42.3783H79.2027V36.3242Z" fill="#060606"/>
<path d="M85.2567 36.3242H79.2026V42.3783H85.2567V36.3242Z" fill="#060606"/>
<path d="M115.527 36.3242H109.473V42.3783H115.527V36.3242Z" fill="#060606"/>
<path d="M127.635 36.3242H121.581V42.3783H127.635V36.3242Z" fill="#060606"/>
<path d="M139.743 36.3242H133.689V42.3783H139.743V36.3242Z" fill="#060606"/>
<path d="M145.797 36.3242H139.743V42.3783H145.797V36.3242Z" fill="#060606"/>
<path d="M151.851 36.3242H145.797V42.3783H151.851V36.3242Z" fill="#060606"/>
<path d="M79.2027 42.3784H73.1487V48.4325H79.2027V42.3784Z" fill="#060606"/>
<path d="M91.3109 42.3784H85.2568V48.4325H91.3109V42.3784Z" fill="#060606"/>
<path d="M97.3648 42.3784H91.3108V48.4325H97.3648V42.3784Z" fill="#060606"/>
<path d="M127.635 42.3784H121.581V48.4325H127.635V42.3784Z" fill="#060606"/>
<path d="M133.689 42.3784H127.635V48.4325H133.689V42.3784Z" fill="#060606"/>
<path d="M139.743 42.3784H133.689V48.4325H139.743V42.3784Z" fill="#060606"/>
<path d="M151.851 42.3784H145.797V48.4325H151.851V42.3784Z" fill="#060606"/>
<path d="M79.2027 48.4324H73.1487V54.4864H79.2027V48.4324Z" fill="#060606"/>
<path d="M91.3109 48.4324H85.2568V54.4864H91.3109V48.4324Z" fill="#060606"/>
<path d="M103.419 48.4324H97.3647V54.4864H103.419V48.4324Z" fill="#060606"/>
<path d="M109.473 48.4324H103.419V54.4864H109.473V48.4324Z" fill="#060606"/>
<path d="M115.527 48.4324H109.473V54.4864H115.527V48.4324Z" fill="#060606"/>
<path d="M121.581 48.4324H115.527V54.4864H121.581V48.4324Z" fill="#060606"/>
<path d="M139.743 48.4324H133.689V54.4864H139.743V48.4324Z" fill="#060606"/>
<path d="M151.851 48.4324H145.797V54.4864H151.851V48.4324Z" fill="#060606"/>
<path d="M79.2027 54.4866H73.1487V60.5406H79.2027V54.4866Z" fill="#060606"/>
<path d="M85.2567 54.4866H79.2026V60.5406H85.2567V54.4866Z" fill="#060606"/>
<path d="M91.3109 54.4866H85.2568V60.5406H91.3109V54.4866Z" fill="#060606"/>
<path d="M103.419 54.4866H97.3647V60.5406H103.419V54.4866Z" fill="#060606"/>
<path d="M109.473 54.4866H103.419V60.5406H109.473V54.4866Z" fill="#060606"/>
<path d="M115.527 54.4866H109.473V60.5406H115.527V54.4866Z" fill="#060606"/>
<path d="M121.581 54.4866H115.527V60.5406H121.581V54.4866Z" fill="#060606"/>
<path d="M127.635 54.4866H121.581V60.5406H127.635V54.4866Z" fill="#060606"/>
<path d="M133.689 54.4866H127.635V60.5406H133.689V54.4866Z" fill="#060606"/>
<path d="M145.797 54.4866H139.743V60.5406H145.797V54.4866Z" fill="#060606"/>
<path d="M79.2027 60.5405H73.1487V66.5946H79.2027V60.5405Z" fill="#060606"/>
<path d="M91.3109 60.5405H85.2568V66.5946H91.3109V60.5405Z" fill="#060606"/>
<path d="M103.419 60.5405H97.3647V66.5946H103.419V60.5405Z" fill="#060606"/>
<path d="M115.527 60.5405H109.473V66.5946H115.527V60.5405Z" fill="#060606"/>
<path d="M127.635 60.5405H121.581V66.5946H127.635V60.5405Z" fill="#060606"/>
<path d="M139.743 60.5405H133.689V66.5946H139.743V60.5405Z" fill="#060606"/>
<path d="M151.851 60.5405H145.797V66.5946H151.851V60.5405Z" fill="#060606"/>
<path d="M79.2027 66.5945H73.1487V72.6485H79.2027V66.5945Z" fill="#060606"/>
<path d="M91.3109 66.5945H85.2568V72.6485H91.3109V66.5945Z" fill="#060606"/>
<path d="M103.419 66.5945H97.3647V72.6485H103.419V66.5945Z" fill="#060606"/>
<path d="M109.473 66.5945H103.419V72.6485H109.473V66.5945Z" fill="#060606"/>
<path d="M121.581 66.5945H115.527V72.6485H121.581V66.5945Z" fill="#060606"/>
<path d="M145.797 66.5945H139.743V72.6485H145.797V66.5945Z" fill="#060606"/>
<path d="M151.851 66.5945H145.797V72.6485H151.851V66.5945Z" fill="#060606"/>
<path d="M30.7704 72.6487H24.7163V78.7027H30.7704V72.6487Z" fill="#060606"/>
<path d="M42.8783 72.6487H36.8242V78.7027H42.8783V72.6487Z" fill="#060606"/>
<path d="M48.9325 72.6487H42.8784V78.7027H48.9325V72.6487Z" fill="#060606"/>
<path d="M54.9864 72.6487H48.9324V78.7027H54.9864V72.6487Z" fill="#060606"/>
<path d="M61.0406 72.6487H54.9866V78.7027H61.0406V72.6487Z" fill="#060606"/>
<path d="M67.0946 72.6487H61.0405V78.7027H67.0946V72.6487Z" fill="#060606"/>
<path d="M115.527 72.6487H109.473V78.7027H115.527V72.6487Z" fill="#060606"/>
<path d="M121.581 72.6487H115.527V78.7027H121.581V72.6487Z" fill="#060606"/>
<path d="M151.851 72.6487H145.797V78.7027H151.851V72.6487Z" fill="#060606"/>
<path d="M163.959 72.6487H157.905V78.7027H163.959V72.6487Z" fill="#060606"/>
<path d="M170.014 72.6487H163.959V78.7027H170.014V72.6487Z" fill="#060606"/>
<path d="M176.067 72.6487H170.013V78.7027H176.067V72.6487Z" fill="#060606"/>
<path d="M182.122 72.6487H176.068V78.7027H182.122V72.6487Z" fill="#060606"/>
<path d="M188.176 72.6487H182.122V78.7027H188.176V72.6487Z" fill="#060606"/>
<path d="M30.7704 78.7026H24.7163V84.7567H30.7704V78.7026Z" fill="#060606"/>
<path d="M48.9325 78.7026H42.8784V84.7567H48.9325V78.7026Z" fill="#060606"/>
<path d="M54.9864 78.7026H48.9324V84.7567H54.9864V78.7026Z" fill="#060606"/>
<path d="M73.1485 78.7026H67.0945V84.7567H73.1485V78.7026Z" fill="#060606"/>
<path d="M79.2027 78.7026H73.1487V84.7567H79.2027V78.7026Z" fill="#060606"/>
<path d="M85.2567 78.7026H79.2026V84.7567H85.2567V78.7026Z" fill="#060606"/>
<path d="M97.3648 78.7026H91.3108V84.7567H97.3648V78.7026Z" fill="#060606"/>
<path d="M103.419 78.7026H97.3647V84.7567H103.419V78.7026Z" fill="#060606"/>
<path d="M121.581 78.7026H115.527V84.7567H121.581V78.7026Z" fill="#060606"/>
<path d="M127.635 78.7026H121.581V84.7567H127.635V78.7026Z" fill="#060606"/>
<path d="M163.959 78.7026H157.905V84.7567H163.959V78.7026Z" fill="#060606"/>
<path d="M170.014 78.7026H163.959V84.7567H170.014V78.7026Z" fill="#060606"/>
<path d="M176.067 78.7026H170.013V84.7567H176.067V78.7026Z" fill="#060606"/>
<path d="M182.122 78.7026H176.068V84.7567H182.122V78.7026Z" fill="#060606"/>
<path d="M194.23 78.7026H188.176V84.7567H194.23V78.7026Z" fill="#060606"/>
<path d="M36.8243 84.7568H30.7703V90.8109H36.8243V84.7568Z" fill="#060606"/>
<path d="M42.8783 84.7568H36.8242V90.8109H42.8783V84.7568Z" fill="#060606"/>
<path d="M61.0406 84.7568H54.9866V90.8109H61.0406V84.7568Z" fill="#060606"/>
<path d="M67.0946 84.7568H61.0405V90.8109H67.0946V84.7568Z" fill="#060606"/>
<path d="M91.3109 84.7568H85.2568V90.8109H91.3109V84.7568Z" fill="#060606"/>
<path d="M97.3648 84.7568H91.3108V90.8109H97.3648V84.7568Z" fill="#060606"/>
<path d="M103.419 84.7568H97.3647V90.8109H103.419V84.7568Z" fill="#060606"/>
<path d="M133.689 84.7568H127.635V90.8109H133.689V84.7568Z" fill="#060606"/>
<path d="M145.797 84.7568H139.743V90.8109H145.797V84.7568Z" fill="#060606"/>
<path d="M157.905 84.7568H151.851V90.8109H157.905V84.7568Z" fill="#060606"/>
<path d="M170.014 84.7568H163.959V90.8109H170.014V84.7568Z" fill="#060606"/>
<path d="M182.122 84.7568H176.068V90.8109H182.122V84.7568Z" fill="#060606"/>
<path d="M188.176 84.7568H182.122V90.8109H188.176V84.7568Z" fill="#060606"/>
<path d="M30.7704 90.8108H24.7163V96.8648H30.7704V90.8108Z" fill="#060606"/>
<path d="M48.9325 90.8108H42.8784V96.8648H48.9325V90.8108Z" fill="#060606"/>
<path d="M54.9864 90.8108H48.9324V96.8648H54.9864V90.8108Z" fill="#060606"/>
<path d="M73.1485 90.8108H67.0945V96.8648H73.1485V90.8108Z" fill="#060606"/>
<path d="M79.2027 90.8108H73.1487V96.8648H79.2027V90.8108Z" fill="#060606"/>
<path d="M85.2567 90.8108H79.2026V96.8648H85.2567V90.8108Z" fill="#060606"/>
<path d="M97.3648 90.8108H91.3108V96.8648H97.3648V90.8108Z" fill="#060606"/>
<path d="M115.527 90.8108H109.473V96.8648H115.527V90.8108Z" fill="#060606"/>
<path d="M127.635 90.8108H121.581V96.8648H127.635V90.8108Z" fill="#060606"/>
<path d="M139.743 90.8108H133.689V96.8648H139.743V90.8108Z" fill="#060606"/>
<path d="M145.797 90.8108H139.743V96.8648H145.797V90.8108Z" fill="#060606"/>
<path d="M151.851 90.8108H145.797V96.8648H151.851V90.8108Z" fill="#060606"/>
<path d="M157.905 90.8108H151.851V96.8648H157.905V90.8108Z" fill="#060606"/>
<path d="M163.959 90.8108H157.905V96.8648H163.959V90.8108Z" fill="#060606"/>
<path d="M170.014 90.8108H163.959V96.8648H170.014V90.8108Z" fill="#060606"/>
<path d="M176.067 90.8108H170.013V96.8648H176.067V90.8108Z" fill="#060606"/>
<path d="M182.122 90.8108H176.068V96.8648H182.122V90.8108Z" fill="#060606"/>
<path d="M200.284 90.8108H194.23V96.8648H200.284V90.8108Z" fill="#060606"/>
<path d="M42.8783 96.8647H36.8242V102.919H42.8783V96.8647Z" fill="#060606"/>
<path d="M48.9325 96.8647H42.8784V102.919H48.9325V96.8647Z" fill="#060606"/>
<path d="M54.9864 96.8647H48.9324V102.919H54.9864V96.8647Z" fill="#060606"/>
<path d="M61.0406 96.8647H54.9866V102.919H61.0406V96.8647Z" fill="#060606"/>
<path d="M67.0946 96.8647H61.0405V102.919H67.0946V96.8647Z" fill="#060606"/>
<path d="M79.2027 96.8647H73.1487V102.919H79.2027V96.8647Z" fill="#060606"/>
<path d="M91.3109 96.8647H85.2568V102.919H91.3109V96.8647Z" fill="#060606"/>
<path d="M163.959 96.8647H157.905V102.919H163.959V96.8647Z" fill="#060606"/>
<path d="M170.014 96.8647H163.959V102.919H170.014V96.8647Z" fill="#060606"/>
<path d="M30.7704 102.919H24.7163V108.973H30.7704V102.919Z" fill="#060606"/>
<path d="M42.8783 102.919H36.8242V108.973H42.8783V102.919Z" fill="#060606"/>
<path d="M73.1485 102.919H67.0945V108.973H73.1485V102.919Z" fill="#060606"/>
<path d="M79.2027 102.919H73.1487V108.973H79.2027V102.919Z" fill="#060606"/>
<path d="M85.2567 102.919H79.2026V108.973H85.2567V102.919Z" fill="#060606"/>
<path d="M91.3109 102.919H85.2568V108.973H91.3109V102.919Z" fill="#060606"/>
<path d="M97.3648 102.919H91.3108V108.973H97.3648V102.919Z" fill="#060606"/>
<path d="M109.473 102.919H103.419V108.973H109.473V102.919Z" fill="#060606"/>
<path d="M115.527 102.919H109.473V108.973H115.527V102.919Z" fill="#060606"/>
<path d="M121.581 102.919H115.527V108.973H121.581V102.919Z" fill="#060606"/>
<path d="M139.743 102.919H133.689V108.973H139.743V102.919Z" fill="#060606"/>
<path d="M151.851 102.919H145.797V108.973H151.851V102.919Z" fill="#060606"/>
<path d="M157.905 102.919H151.851V108.973H157.905V102.919Z" fill="#060606"/>
<path d="M163.959 102.919H157.905V108.973H163.959V102.919Z" fill="#060606"/>
<path d="M170.014 102.919H163.959V108.973H170.014V102.919Z" fill="#060606"/>
<path d="M176.067 102.919H170.013V108.973H176.067V102.919Z" fill="#060606"/>
<path d="M182.122 102.919H176.068V108.973H182.122V102.919Z" fill="#060606"/>
<path d="M194.23 102.919H188.176V108.973H194.23V102.919Z" fill="#060606"/>
<path d="M42.8783 108.973H36.8242V115.027H42.8783V108.973Z" fill="#060606"/>
<path d="M48.9325 108.973H42.8784V115.027H48.9325V108.973Z" fill="#060606"/>
<path d="M54.9864 108.973H48.9324V115.027H54.9864V108.973Z" fill="#060606"/>
<path d="M67.0946 108.973H61.0405V115.027H67.0946V108.973Z" fill="#060606"/>
<path d="M79.2027 108.973H73.1487V115.027H79.2027V108.973Z" fill="#060606"/>
<path d="M85.2567 108.973H79.2026V115.027H85.2567V108.973Z" fill="#060606"/>
<path d="M97.3648 108.973H91.3108V115.027H97.3648V108.973Z" fill="#060606"/>
<path d="M109.473 108.973H103.419V115.027H109.473V108.973Z" fill="#060606"/>
<path d="M115.527 108.973H109.473V115.027H115.527V108.973Z" fill="#060606"/>
<path d="M121.581 108.973H115.527V115.027H121.581V108.973Z" fill="#060606"/>
<path d="M133.689 108.973H127.635V115.027H133.689V108.973Z" fill="#060606"/>
<path d="M151.851 108.973H145.797V115.027H151.851V108.973Z" fill="#060606"/>
<path d="M170.014 108.973H163.959V115.027H170.014V108.973Z" fill="#060606"/>
<path d="M182.122 108.973H176.068V115.027H182.122V108.973Z" fill="#060606"/>
<path d="M188.176 108.973H182.122V115.027H188.176V108.973Z" fill="#060606"/>
<path d="M194.23 108.973H188.176V115.027H194.23V108.973Z" fill="#060606"/>
<path d="M200.284 108.973H194.23V115.027H200.284V108.973Z" fill="#060606"/>
<path d="M30.7704 115.027H24.7163V121.081H30.7704V115.027Z" fill="#060606"/>
<path d="M54.9864 115.027H48.9324V121.081H54.9864V115.027Z" fill="#060606"/>
<path d="M61.0406 115.027H54.9866V121.081H61.0406V115.027Z" fill="#060606"/>
<path d="M73.1485 115.027H67.0945V121.081H73.1485V115.027Z" fill="#060606"/>
<path d="M85.2567 115.027H79.2026V121.081H85.2567V115.027Z" fill="#060606"/>
<path d="M97.3648 115.027H91.3108V121.081H97.3648V115.027Z" fill="#060606"/>
<path d="M109.473 115.027H103.419V121.081H109.473V115.027Z" fill="#060606"/>
<path d="M121.581 115.027H115.527V121.081H121.581V115.027Z" fill="#060606"/>
<path d="M139.743 115.027H133.689V121.081H139.743V115.027Z" fill="#060606"/>
<path d="M145.797 115.027H139.743V121.081H145.797V115.027Z" fill="#060606"/>
<path d="M151.851 115.027H145.797V121.081H151.851V115.027Z" fill="#060606"/>
<path d="M163.959 115.027H157.905V121.081H163.959V115.027Z" fill="#060606"/>
<path d="M170.014 115.027H163.959V121.081H170.014V115.027Z" fill="#060606"/>
<path d="M176.067 115.027H170.013V121.081H176.067V115.027Z" fill="#060606"/>
<path d="M194.23 115.027H188.176V121.081H194.23V115.027Z" fill="#060606"/>
<path d="M200.284 115.027H194.23V121.081H200.284V115.027Z" fill="#060606"/>
<path d="M36.8243 121.081H30.7703V127.135H36.8243V121.081Z" fill="#060606"/>
<path d="M48.9325 121.081H42.8784V127.135H48.9325V121.081Z" fill="#060606"/>
<path d="M54.9864 121.081H48.9324V127.135H54.9864V121.081Z" fill="#060606"/>
<path d="M61.0406 121.081H54.9866V127.135H61.0406V121.081Z" fill="#060606"/>
<path d="M67.0946 121.081H61.0405V127.135H67.0946V121.081Z" fill="#060606"/>
<path d="M73.1485 121.081H67.0945V127.135H73.1485V121.081Z" fill="#060606"/>
<path d="M79.2027 121.081H73.1487V127.135H79.2027V121.081Z" fill="#060606"/>
<path d="M103.419 121.081H97.3647V127.135H103.419V121.081Z" fill="#060606"/>
<path d="M115.527 121.081H109.473V127.135H115.527V121.081Z" fill="#060606"/>
<path d="M121.581 121.081H115.527V127.135H121.581V121.081Z" fill="#060606"/>
<path d="M127.635 121.081H121.581V127.135H127.635V121.081Z" fill="#060606"/>
<path d="M170.014 121.081H163.959V127.135H170.014V121.081Z" fill="#060606"/>
<path d="M30.7704 127.135H24.7163V133.189H30.7704V127.135Z" fill="#060606"/>
<path d="M54.9864 127.135H48.9324V133.189H54.9864V127.135Z" fill="#060606"/>
<path d="M73.1485 127.135H67.0945V133.189H73.1485V127.135Z" fill="#060606"/>
<path d="M79.2027 127.135H73.1487V133.189H79.2027V127.135Z" fill="#060606"/>
<path d="M85.2567 127.135H79.2026V133.189H85.2567V127.135Z" fill="#060606"/>
<path d="M127.635 127.135H121.581V133.189H127.635V127.135Z" fill="#060606"/>
<path d="M139.743 127.135H133.689V133.189H139.743V127.135Z" fill="#060606"/>
<path d="M151.851 127.135H145.797V133.189H151.851V127.135Z" fill="#060606"/>
<path d="M163.959 127.135H157.905V133.189H163.959V127.135Z" fill="#060606"/>
<path d="M170.014 127.135H163.959V133.189H170.014V127.135Z" fill="#060606"/>
<path d="M176.067 127.135H170.013V133.189H176.067V127.135Z" fill="#060606"/>
<path d="M182.122 127.135H176.068V133.189H182.122V127.135Z" fill="#060606"/>
<path d="M200.284 127.135H194.23V133.189H200.284V127.135Z" fill="#060606"/>
<path d="M30.7704 133.189H24.7163V139.243H30.7704V133.189Z" fill="#060606"/>
<path d="M54.9864 133.189H48.9324V139.243H54.9864V133.189Z" fill="#060606"/>
<path d="M67.0946 133.189H61.0405V139.243H67.0946V133.189Z" fill="#060606"/>
<path d="M73.1485 133.189H67.0945V139.243H73.1485V133.189Z" fill="#060606"/>
<path d="M79.2027 133.189H73.1487V139.243H79.2027V133.189Z" fill="#060606"/>
<path d="M85.2567 133.189H79.2026V139.243H85.2567V133.189Z" fill="#060606"/>
<path d="M91.3109 133.189H85.2568V139.243H91.3109V133.189Z" fill="#060606"/>
<path d="M103.419 133.189H97.3647V139.243H103.419V133.189Z" fill="#060606"/>
<path d="M133.689 133.189H127.635V139.243H133.689V133.189Z" fill="#060606"/>
<path d="M170.014 133.189H163.959V139.243H170.014V133.189Z" fill="#060606"/>
<path d="M182.122 133.189H176.068V139.243H182.122V133.189Z" fill="#060606"/>
<path d="M188.176 133.189H182.122V139.243H188.176V133.189Z" fill="#060606"/>
<path d="M200.284 133.189H194.23V139.243H200.284V133.189Z" fill="#060606"/>
<path d="M30.7704 139.243H24.7163V145.297H30.7704V139.243Z" fill="#060606"/>
<path d="M42.8783 139.243H36.8242V145.297H42.8783V139.243Z" fill="#060606"/>
<path d="M85.2567 139.243H79.2026V145.297H85.2567V139.243Z" fill="#060606"/>
<path d="M97.3648 139.243H91.3108V145.297H97.3648V139.243Z" fill="#060606"/>
<path d="M115.527 139.243H109.473V145.297H115.527V139.243Z" fill="#060606"/>
<path d="M133.689 139.243H127.635V145.297H133.689V139.243Z" fill="#060606"/>
<path d="M145.797 139.243H139.743V145.297H145.797V139.243Z" fill="#060606"/>
<path d="M151.851 139.243H145.797V145.297H151.851V139.243Z" fill="#060606"/>
<path d="M157.905 139.243H151.851V145.297H157.905V139.243Z" fill="#060606"/>
<path d="M163.959 139.243H157.905V145.297H163.959V139.243Z" fill="#060606"/>
<path d="M170.014 139.243H163.959V145.297H170.014V139.243Z" fill="#060606"/>
<path d="M176.067 139.243H170.013V145.297H176.067V139.243Z" fill="#060606"/>
<path d="M30.7704 145.297H24.7163V151.351H30.7704V145.297Z" fill="#060606"/>
<path d="M42.8783 145.297H36.8242V151.351H42.8783V145.297Z" fill="#060606"/>
<path d="M48.9325 145.297H42.8784V151.351H48.9325V145.297Z" fill="#060606"/>
<path d="M67.0946 145.297H61.0405V151.351H67.0946V145.297Z" fill="#060606"/>
<path d="M73.1485 145.297H67.0945V151.351H73.1485V145.297Z" fill="#060606"/>
<path d="M97.3648 145.297H91.3108V151.351H97.3648V145.297Z" fill="#060606"/>
<path d="M103.419 145.297H97.3647V151.351H103.419V145.297Z" fill="#060606"/>
<path d="M121.581 145.297H115.527V151.351H121.581V145.297Z" fill="#060606"/>
<path d="M127.635 145.297H121.581V151.351H127.635V145.297Z" fill="#060606"/>
<path d="M139.743 145.297H133.689V151.351H139.743V145.297Z" fill="#060606"/>
<path d="M151.851 145.297H145.797V151.351H151.851V145.297Z" fill="#060606"/>
<path d="M157.905 145.297H151.851V151.351H157.905V145.297Z" fill="#060606"/>
<path d="M163.959 145.297H157.905V151.351H163.959V145.297Z" fill="#060606"/>
<path d="M170.014 145.297H163.959V151.351H170.014V145.297Z" fill="#060606"/>
<path d="M176.067 145.297H170.013V151.351H176.067V145.297Z" fill="#060606"/>
<path d="M182.122 145.297H176.068V151.351H182.122V145.297Z" fill="#060606"/>
<path d="M188.176 145.297H182.122V151.351H188.176V145.297Z" fill="#060606"/>
<path d="M194.23 145.297H188.176V151.351H194.23V145.297Z" fill="#060606"/>
<path d="M79.2027 151.351H73.1487V157.405H79.2027V151.351Z" fill="#060606"/>
<path d="M85.2567 151.351H79.2026V157.405H85.2567V151.351Z" fill="#060606"/>
<path d="M91.3109 151.351H85.2568V157.405H91.3109V151.351Z" fill="#060606"/>
<path d="M103.419 151.351H97.3647V157.405H103.419V151.351Z" fill="#060606"/>
<path d="M109.473 151.351H103.419V157.405H109.473V151.351Z" fill="#060606"/>
<path d="M115.527 151.351H109.473V157.405H115.527V151.351Z" fill="#060606"/>
<path d="M121.581 151.351H115.527V157.405H121.581V151.351Z" fill="#060606"/>
<path d="M127.635 151.351H121.581V157.405H127.635V151.351Z" fill="#060606"/>
<path d="M151.851 151.351H145.797V157.405H151.851V151.351Z" fill="#060606"/>
<path d="M176.067 151.351H170.013V157.405H176.067V151.351Z" fill="#060606"/>
<path d="M194.23 151.351H188.176V157.405H194.23V151.351Z" fill="#060606"/>
<path d="M85.2567 157.405H79.2026V163.459H85.2567V157.405Z" fill="#060606"/>
<path d="M91.3109 157.405H85.2568V163.459H91.3109V157.405Z" fill="#060606"/>
<path d="M97.3648 157.405H91.3108V163.459H97.3648V157.405Z" fill="#060606"/>
<path d="M109.473 157.405H103.419V163.459H109.473V157.405Z" fill="#060606"/>
<path d="M115.527 157.405H109.473V163.459H115.527V157.405Z" fill="#060606"/>
<path d="M133.689 157.405H127.635V163.459H133.689V157.405Z" fill="#060606"/>
<path d="M139.743 157.405H133.689V163.459H139.743V157.405Z" fill="#060606"/>
<path d="M151.851 157.405H145.797V163.459H151.851V157.405Z" fill="#060606"/>
<path d="M163.959 157.405H157.905V163.459H163.959V157.405Z" fill="#060606"/>
<path d="M176.067 157.405H170.013V163.459H176.067V157.405Z" fill="#060606"/>
<path d="M182.122 157.405H176.068V163.459H182.122V157.405Z" fill="#060606"/>
<path d="M188.176 157.405H182.122V163.459H188.176V157.405Z" fill="#060606"/>
<path d="M79.2027 163.459H73.1487V169.514H79.2027V163.459Z" fill="#060606"/>
<path d="M85.2567 163.459H79.2026V169.514H85.2567V163.459Z" fill="#060606"/>
<path d="M97.3648 163.459H91.3108V169.514H97.3648V163.459Z" fill="#060606"/>
<path d="M103.419 163.459H97.3647V169.514H103.419V163.459Z" fill="#060606"/>
<path d="M109.473 163.459H103.419V169.514H109.473V163.459Z" fill="#060606"/>
<path d="M127.635 163.459H121.581V169.514H127.635V163.459Z" fill="#060606"/>
<path d="M133.689 163.459H127.635V169.514H133.689V163.459Z" fill="#060606"/>
<path d="M139.743 163.459H133.689V169.514H139.743V163.459Z" fill="#060606"/>
<path d="M145.797 163.459H139.743V169.514H145.797V163.459Z" fill="#060606"/>
<path d="M151.851 163.459H145.797V169.514H151.851V163.459Z" fill="#060606"/>
<path d="M176.067 163.459H170.013V169.514H176.067V163.459Z" fill="#060606"/>
<path d="M188.176 163.459H182.122V169.514H188.176V163.459Z" fill="#060606"/>
<path d="M194.23 163.459H188.176V169.514H194.23V163.459Z" fill="#060606"/>
<path d="M200.284 163.459H194.23V169.514H200.284V163.459Z" fill="#060606"/>
<path d="M79.2027 169.513H73.1487V175.567H79.2027V169.513Z" fill="#060606"/>
<path d="M85.2567 169.513H79.2026V175.567H85.2567V169.513Z" fill="#060606"/>
<path d="M97.3648 169.513H91.3108V175.567H97.3648V169.513Z" fill="#060606"/>
<path d="M103.419 169.513H97.3647V175.567H103.419V169.513Z" fill="#060606"/>
<path d="M115.527 169.513H109.473V175.567H115.527V169.513Z" fill="#060606"/>
<path d="M121.581 169.513H115.527V175.567H121.581V169.513Z" fill="#060606"/>
<path d="M127.635 169.513H121.581V175.567H127.635V169.513Z" fill="#060606"/>
<path d="M133.689 169.513H127.635V175.567H133.689V169.513Z" fill="#060606"/>
<path d="M145.797 169.513H139.743V175.567H145.797V169.513Z" fill="#060606"/>
<path d="M151.851 169.513H145.797V175.567H151.851V169.513Z" fill="#060606"/>
<path d="M157.905 169.513H151.851V175.567H157.905V169.513Z" fill="#060606"/>
<path d="M163.959 169.513H157.905V175.567H163.959V169.513Z" fill="#060606"/>
<path d="M170.014 169.513H163.959V175.567H170.014V169.513Z" fill="#060606"/>
<path d="M176.067 169.513H170.013V175.567H176.067V169.513Z" fill="#060606"/>
<path d="M188.176 169.513H182.122V175.567H188.176V169.513Z" fill="#060606"/>
<path d="M194.23 169.513H188.176V175.567H194.23V169.513Z" fill="#060606"/>
<path d="M200.284 169.513H194.23V175.567H200.284V169.513Z" fill="#060606"/>
<path d="M79.2027 175.568H73.1487V181.622H79.2027V175.568Z" fill="#060606"/>
<path d="M91.3109 175.568H85.2568V181.622H91.3109V175.568Z" fill="#060606"/>
<path d="M97.3648 175.568H91.3108V181.622H97.3648V175.568Z" fill="#060606"/>
<path d="M109.473 175.568H103.419V181.622H109.473V175.568Z" fill="#060606"/>
<path d="M127.635 175.568H121.581V181.622H127.635V175.568Z" fill="#060606"/>
<path d="M139.743 175.568H133.689V181.622H139.743V175.568Z" fill="#060606"/>
<path d="M151.851 175.568H145.797V181.622H151.851V175.568Z" fill="#060606"/>
<path d="M163.959 175.568H157.905V181.622H163.959V175.568Z" fill="#060606"/>
<path d="M170.014 175.568H163.959V181.622H170.014V175.568Z" fill="#060606"/>
<path d="M79.2027 181.622H73.1487V187.676H79.2027V181.622Z" fill="#060606"/>
<path d="M91.3109 181.622H85.2568V187.676H91.3109V181.622Z" fill="#060606"/>
<path d="M97.3648 181.622H91.3108V187.676H97.3648V181.622Z" fill="#060606"/>
<path d="M115.527 181.622H109.473V187.676H115.527V181.622Z" fill="#060606"/>
<path d="M133.689 181.622H127.635V187.676H133.689V181.622Z" fill="#060606"/>
<path d="M145.797 181.622H139.743V187.676H145.797V181.622Z" fill="#060606"/>
<path d="M163.959 181.622H157.905V187.676H163.959V181.622Z" fill="#060606"/>
<path d="M170.014 181.622H163.959V187.676H170.014V181.622Z" fill="#060606"/>
<path d="M188.176 181.622H182.122V187.676H188.176V181.622Z" fill="#060606"/>
<path d="M194.23 181.622H188.176V187.676H194.23V181.622Z" fill="#060606"/>
<path d="M115.527 187.676H109.473V193.73H115.527V187.676Z" fill="#060606"/>
<path d="M127.635 187.676H121.581V193.73H127.635V187.676Z" fill="#060606"/>
<path d="M139.743 187.676H133.689V193.73H139.743V187.676Z" fill="#060606"/>
<path d="M151.851 187.676H145.797V193.73H151.851V187.676Z" fill="#060606"/>
<path d="M182.122 187.676H176.068V193.73H182.122V187.676Z" fill="#060606"/>
<path d="M188.176 187.676H182.122V193.73H188.176V187.676Z" fill="#060606"/>
<path d="M200.284 187.676H194.23V193.73H200.284V187.676Z" fill="#060606"/>
<path d="M79.2027 193.73H73.1487V199.784H79.2027V193.73Z" fill="#060606"/>
<path d="M85.2567 193.73H79.2026V199.784H85.2567V193.73Z" fill="#060606"/>
<path d="M91.3109 193.73H85.2568V199.784H91.3109V193.73Z" fill="#060606"/>
<path d="M121.581 193.73H115.527V199.784H121.581V193.73Z" fill="#060606"/>
<path d="M127.635 193.73H121.581V199.784H127.635V193.73Z" fill="#060606"/>
<path d="M133.689 193.73H127.635V199.784H133.689V193.73Z" fill="#060606"/>
<path d="M139.743 193.73H133.689V199.784H139.743V193.73Z" fill="#060606"/>
<path d="M163.959 193.73H157.905V199.784H163.959V193.73Z" fill="#060606"/>
<path d="M176.067 193.73H170.013V199.784H176.067V193.73Z" fill="#060606"/>
<path d="M182.122 193.73H176.068V199.784H182.122V193.73Z" fill="#060606"/>
<path d="M188.176 193.73H182.122V199.784H188.176V193.73Z" fill="#060606"/>
<path d="M67.0947 24.2163H24.7163V66.5947H67.0947V24.2163Z" fill="#060606"/>
<path d="M61.0405 30.2703H30.7703V60.5405H61.0405V30.2703Z" fill="white"/>
<path d="M200.284 24.2163H157.905V66.5947H200.284V24.2163Z" fill="#060606"/>
<path d="M194.23 30.2703H163.959V60.5405H194.23V30.2703Z" fill="white"/>
<path d="M54.9864 36.3242H36.8242V54.4864H54.9864V36.3242Z" fill="#060606"/>
<path d="M188.176 36.3242H170.013V54.4864H188.176V36.3242Z" fill="#060606"/>
<path d="M67.0947 157.405H24.7163V199.784H67.0947V157.405Z" fill="#060606"/>
<path d="M61.0405 163.459H30.7703V193.73H61.0405V163.459Z" fill="white"/>
<path d="M54.9864 169.513H36.8242V187.676H54.9864V169.513Z" fill="#060606"/>
<g style="mix-blend-mode:lighten">
<rect x="1" width="224" height="224" fill="url(#paint0_linear_10786_3488)"/>
</g>
</g>
<defs>
<linearGradient id="paint0_linear_10786_3488" x1="113" y1="0" x2="113" y2="224" gradientUnits="userSpaceOnUse">
<stop stop-color="#8059EE"/>
<stop offset="1" stop-color="#493388"/>
</linearGradient>
<clipPath id="clip0_10786_3488">
<rect width="224" height="224" fill="white" transform="translate(0.5)"/>
</clipPath>
</defs>
</svg>
